<?xml version="1.0" encoding="UTF-8" standalone="no"?>
<svg
   width="387.6"
   height="205.9850282009534"
   viewBox="0 0 350 186.00299244152137"
   class="css-1j8o68f"
   version="1.1"
   id="svg11"
   sodipodi:docname="logo.svg"
   inkscape:version="1.1.2 (0a00cf5339, 2022-02-04)"
   xmlns:inkscape="http://www.inkscape.org/namespaces/inkscape"
   xmlns:sodipodi="http://sodipodi.sourceforge.net/DTD/sodipodi-0.dtd"
   xmlns="http://www.w3.org/2000/svg"
   xmlns:svg="http://www.w3.org/2000/svg">
  <sodipodi:namedview
     id="namedview13"
     pagecolor="#ffffff"
     bordercolor="#666666"
     borderopacity="1.0"
     inkscape:pageshadow="2"
     inkscape:pageopacity="0.0"
     inkscape:pagecheckerboard="true"
     showgrid="false"
     inkscape:zoom="6.7569625"
     inkscape:cx="252.33232"
     inkscape:cy="41.142747"
     inkscape:window-width="1920"
     inkscape:window-height="1015"
     inkscape:window-x="0"
     inkscape:window-y="0"
     inkscape:window-maximized="1"
     inkscape:current-layer="svg11" />
  <defs
     id="SvgjsDefs2845">
    <rect
       x="296.15231"
       y="40.423171"
       width="54.981606"
       height="48.528147"
       id="rect77710" />
  </defs>
  <g
     id="SvgjsG2846"
     featurekey="rDwwlG-0"
     transform="matrix(1.4000000000000001,0,0,1.4000000000000001,105,0)"
     fill="#404c57">
    <path
       id="path3"
       style="stroke-width:1.5504"
       d="M 229.03906 28.191406 C 228.10572 28.191406 227.19713 28.256625 226.2793 28.304688 C 227.21884 32.600846 227.75781 37.227751 227.75781 42.285156 C 227.75781 44.071606 227.60861 45.8626 227.33594 47.654297 C 228.60949 47.321502 229.94755 47.140625 231.36133 47.140625 C 233.68404 47.140625 235.73822 47.587824 237.52344 48.482422 C 239.69258 49.542686 240.77539 51.00196 240.77539 52.857422 C 240.77539 54.530651 239.83628 55.367188 237.95508 55.367188 C 237.12965 55.367188 236.44764 55.13574 235.91016 54.671875 C 235.37267 54.20801 235.10352 53.618615 235.10352 52.90625 C 235.10352 51.332421 236.07293 50.513532 238.01172 50.447266 C 236.47604 49.155069 234.27816 48.507812 231.41797 48.507812 C 229.88229 48.507813 228.53847 48.765732 227.38672 49.279297 C 227.25501 49.337669 227.13513 49.399533 227.01562 49.462891 C 226.71639 50.957476 226.33219 52.451884 225.86523 53.943359 C 226.57401 55.110506 227.90171 56.355166 229.86328 57.677734 C 235.06538 61.156725 237.92507 63.127931 238.44336 63.591797 C 241.51471 66.32529 243.05078 69.324266 243.05078 72.587891 C 243.05078 75.669282 241.82231 78.419164 239.36523 80.837891 C 236.81218 83.339451 233.77033 84.589844 230.23828 84.589844 C 226.8406 84.589844 224.13276 83.530684 222.11719 81.410156 C 220.25518 79.455295 219.32422 76.977074 219.32422 73.978516 C 219.32422 70.946824 220.49599 68.354833 222.83789 66.201172 C 225.10301 64.130344 228.00115 62.871127 231.5332 62.423828 C 230.86135 61.77773 229.53773 60.776432 227.56055 59.417969 C 226.3706 58.594145 225.43464 57.861729 224.7168 57.207031 C 219.97438 69.355091 210.23655 81.214252 199.49219 91.556641 L 238.00977 120.44531 L 238.00977 98.662109 C 257.83318 95.324098 271.32031 81.369676 271.32031 64.070312 C 271.32031 44.296511 253.07026 28.191406 229.03906 28.191406 z M 232.80078 63.617188 C 229.8638 64.014786 227.57892 65.124937 225.94727 66.947266 C 224.3924 68.686761 223.61523 70.864895 223.61523 73.482422 C 223.61523 76.000549 224.18189 78.14534 225.31445 79.917969 C 226.71576 82.137896 228.74974 83.248047 231.41797 83.248047 C 233.95183 83.248047 235.89066 82.213406 237.23438 80.142578 C 238.30935 78.469349 238.84766 76.447152 238.84766 74.078125 C 238.84766 70.980167 236.83193 67.493777 232.80078 63.617188 z "
       transform="matrix(0.64499483,0,0,0.64499483,-75,0)" />
    <path
       fill="#404c57"
       d="M33.885,0C15.354,0,0,12.553,0,28.1c0,13.604,11.985,24.646,27.272,27.271v18.185  c0,0,39.671-23.679,39.671-46.282C66.943,9.595,52.415,0,33.885,0z M32.231,63.636V51.243C19.493,49.105,5.785,41.426,5.785,28.1  c0-12.632,12.657-23.14,28.1-23.14c15.443,0,27.272,7.971,27.272,22.313C61.157,44.304,32.231,63.636,32.231,63.636z"
       id="path5" />
  </g>
  <g
     id="SvgjsG2847"
     featurekey="4AZ1rv-0"
     transform="matrix(4.031329200993596,0,0,4.031329200993596,-1.69315857198332,104.81202479403842)"
     fill="#404c57">
    <path
       d="M8.02 15 c0 -1.5 -0.74 -2.32 -2.26 -2.32 c-0.42 0 -0.78 0.06 -1.08 0.18 c-0.56 0.26 -0.94 0.64 -1.12 1.24 c-0.1 0.28 -0.14 0.58 -0.14 0.9 s0.04 0.62 0.14 0.9 c0.16 0.58 0.58 1 1.12 1.22 c0.3 0.14 0.66 0.2 1.08 0.2 c1.52 0 2.26 -0.82 2.26 -2.32 z M8.02 11 l0 -5 l3 0 l0 9 c0 3.18 -2.26 5.1 -5.28 5.1 c-3.08 0 -5.32 -2 -5.32 -5.06 c0 -2.82 2.08 -5.14 4.92 -5.14 c1.06 0 1.98 0.3 2.68 1.1 z M15.719999999999999 13.8 c0.3 0.1 0.64 0.18 1 0.22 c0.36 0.06 0.7 0.08 1.02 0.08 c0.4 0 1.42 -0.08 1.42 -0.66 c0 -0.62 -0.88 -0.64 -1.32 -0.64 c-0.88 0 -1.64 0.2 -2.12 1 z M21.38 16.88 l0 2.8 c-1.12 0.26 -2.24 0.44 -3.4 0.44 c-3.18 0 -5.54 -1.86 -5.54 -5.08 c0 -3.18 2.28 -5.14 5.3 -5.14 c2.06 0 4.44 0.98 4.44 3.32 c0 2.32 -2.52 3.18 -4.46 3.18 c-0.74 0 -1.48 -0.2 -2.16 -0.48 c0.4 1.12 1.6 1.3 2.64 1.3 c0.54 0 1.08 -0.02 1.62 -0.1 c0.5 -0.04 1.08 -0.1 1.56 -0.24 z M23.56 6 l3 0 l0 14 l-3 0 l0 -14 z M34.3 10.34 l0 2.78 l-2.8 0 l0 1.88 c0 1.54 1.02 2.32 2.5 2.32 c0.18 0 0.34 -0.02 0.48 -0.04 s0.26 -0.04 0.4 -0.06 l0 2.78 c-0.18 0.02 -0.32 0.06 -0.42 0.08 c-0.12 0.02 -0.32 0.02 -0.58 0.02 c-3.02 0 -5.38 -2.06 -5.38 -5.1 l0 -7.4 l3 0 l0 2.74 l2.8 0 z M43.44 15 c-0.08 -1.46 -0.74 -2.32 -2.26 -2.32 c-0.42 0 -0.78 0.06 -1.08 0.18 c-0.92 0.42 -1.26 1.2 -1.26 2.16 c0 0.32 0.04 0.62 0.14 0.88 c0.3 1.04 1.2 1.42 2.2 1.42 c1.52 0 2.26 -0.82 2.26 -2.32 z M47.24 20 l-3 0 c-0.2 -0.5 -0.38 -1 -0.5 -1.52 c-0.68 1.12 -1.72 1.62 -3 1.62 c-2.86 0 -4.9 -2.4 -4.9 -5.14 c0 -3.16 2.36 -5.06 5.34 -5.06 c3.18 0 5.18 2.04 5.26 5.1 c0.02 0.26 0.02 0.56 0.02 0.92 c0 1.4 0.22 2.8 0.78 4.08 z M48.559999999999995 7.76 l3 0 l0 12.24 l-3 0 l0 -12.24 z M56.82 10.58 l0 2.92 l2.8 0 c0.92 0 1.46 -0.54 1.46 -1.46 s-0.54 -1.46 -1.46 -1.46 l-2.8 0 z M61.36 15.48 c0.56 0.76 1.12 1.52 1.7 2.26 c0.56 0.74 1.12 1.5 1.68 2.26 l-3.66 0 c-0.72 -0.96 -1.42 -1.92 -2.12 -2.88 c-0.7 -0.94 -1.42 -1.9 -2.14 -2.86 l0 5.74 l-3 0 l0 -12.24 l5.8 0 c2.28 0 4.22 1.74 4.22 4.04 c0 1.62 -1 3.04 -2.48 3.68 z M75.62 16.58 l0 3.08 c-1.24 0.34 -2.48 0.48 -3.76 0.48 c-3.76 0 -6.28 -2.58 -6.28 -6.24 c0 -3.76 2.62 -6.24 6.26 -6.24 c1.26 0 2.58 0.1 3.78 0.48 l0 3.08 c-0.98 -0.48 -2.52 -0.66 -3.6 -0.66 c-2.44 0 -3.44 1 -3.44 3.32 c0 2.46 1.18 3.36 3.46 3.36 c1.02 0 2.68 -0.16 3.58 -0.66 z M84.24 15 c0 -1.5 -0.74 -2.32 -2.26 -2.32 c-0.42 0 -0.78 0.06 -1.08 0.18 c-0.56 0.26 -0.94 0.64 -1.12 1.24 c-0.1 0.28 -0.14 0.58 -0.14 0.9 s0.04 0.62 0.14 0.9 c0.16 0.58 0.58 1 1.12 1.22 c0.3 0.14 0.66 0.2 1.08 0.2 c1.52 0 2.26 -0.82 2.26 -2.32 z M84.24 11 l0 -5 l3 0 l0 9 c0 3.18 -2.26 5.1 -5.28 5.1 c-3.08 0 -5.32 -2 -5.32 -5.06 c0 -2.82 2.08 -5.14 4.92 -5.14 c1.06 0 1.98 0.3 2.68 1.1 z"
       id="path8" />
    <path
       style="opacity:1;fill:#364049;fill-opacity:1;stroke-width:0.4565"
       d="m 215.23981,178.03505 v -26.93351 h 6.391 6.39101 v 26.93351 26.93351 h -6.39101 -6.391 z"
       id="path140246"
       transform="matrix(0.2239938,0,0,0.2239938,0.42000008,-25.999371)" />
    <path
       style="opacity:1;fill:#364049;fill-opacity:1;stroke-width:0.431119"
       d="m 238.62434,178.05213 v -27.1605 h 13.92079 c 15.1412,0 16.95734,0.21256 21.10522,2.47012 1.16048,0.63161 3.22556,2.34096 4.58906,3.79855 7.56221,8.08402 5.76342,20.23129 -3.9268,26.51777 l -2.46576,1.59965 7.31585,9.74575 c 4.02371,5.36017 7.31584,9.84552 7.31584,9.96745 0,0.12194 -3.49255,0.2217 -7.76123,0.2217 h -7.76124 l -4.36621,-5.92788 c -11.6963,-15.87972 -14.41023,-19.47615 -14.70861,-19.4915 -0.17784,-0.009 -0.32334,5.70647 -0.32334,12.70137 v 12.71801 h -6.46679 -6.46678 z m 29.66537,-2.59777 c 3.72644,-2.27195 3.5156,-9.15287 -0.34928,-11.39893 -1.32475,-0.76988 -2.41663,-0.89527 -8.94572,-1.02735 l -7.4368,-0.15044 v 6.72501 6.725 l 7.65236,-0.002 c 6.91482,-0.001 7.7899,-0.0855 9.07944,-0.87168 z"
       id="path140840"
       transform="matrix(0.2239938,0,0,0.2239938,0.42000008,-25.999371)" />
    <path
       style="opacity:1;fill:#364049;fill-opacity:1;stroke-width:0.431119"
       d="m 311.58037,205.01433 c -9.76886,-2.21792 -17.65862,-10.19035 -19.72205,-19.92868 -0.34237,-1.61584 -0.62587,-4.79839 -0.62998,-7.07234 -0.0201,-11.07142 5.22732,-20.09761 14.21944,-24.45937 5.22298,-2.53349 9.46342,-3.28159 16.81364,-2.9663 4.99418,0.21423 11.97272,1.21907 13.03779,1.87732 0.17979,0.11112 0.32689,3.20447 0.32689,6.8741 0,6.47536 -0.0247,6.65884 -0.83844,6.22335 -0.46114,-0.24679 -2.54668,-0.86889 -4.63453,-1.38243 -5.6139,-1.38084 -14.82883,-1.35909 -18.39584,0.0434 -3.12524,1.2288 -5.51979,3.55878 -6.50589,6.33045 -1.11072,3.12194 -1.36437,9.66697 -0.50469,13.02264 1.04114,4.06397 2.72278,6.21497 6.19389,7.92267 l 2.89968,1.42657 6.90506,-0.0403 c 6.60886,-0.0386 10.23119,-0.58337 14.12631,-2.12457 0.69887,-0.27653 0.75445,0.19265 0.75445,6.36859 v 6.66711 l -3.55673,0.75286 c -4.8736,1.03162 -16.80092,1.30226 -20.489,0.46492 z"
       id="path140879"
       transform="matrix(0.2239938,0,0,0.2239938,0.42000008,-25.999371)" />
  </g>
  <text
     xml:space="preserve"
     style="font-style:normal;font-weight:normal;font-size:67.4235px;line-height:1.25;font-family:sans-serif;letter-spacing:0px;word-spacing:0px;fill:#000000;fill-opacity:1;stroke:none;stroke-width:0.902993"
     x="134.84895"
     y="57.218674"
     id="text2899"><tspan
       id="tspan2897"
       style="font-style:normal;font-variant:normal;font-weight:normal;font-stretch:normal;font-size:67.4235px;font-family:Dyuthi;-inkscape-font-specification:Dyuthi;fill:#404c57;fill-opacity:1;stroke-width:0.902993"
       x="134.84895"
       y="57.218674"
       sodipodi:role="line">#</tspan></text>
</svg>
